<svg xmlns="http://www.w3.org/2000/svg" version="1.1" xmlns:xlink="http://www.w3.org/1999/xlink" xmlns:svgjs="http://svgjs.dev/svgjs" width="1000" height="1000" viewBox="0 0 1000 1000"><rect width="1000" height="1000" fill="#ffffff"></rect><g transform="matrix(0.7,0,0,0.7,150.0000000000001,106.25)"><svg viewBox="0 0 320 360" data-background-color="#102e44" preserveAspectRatio="xMidYMid meet" height="1125" width="1000" xmlns="http://www.w3.org/2000/svg" xmlns:xlink="http://www.w3.org/1999/xlink"><g id="tight-bounds" transform="matrix(1,0,0,1,-5.684341886080802e-14,0)"><svg viewBox="0 0 320 360" height="360" width="320"><g><svg></svg></g><g><svg viewBox="0 0 320 360" height="360" width="320"><g><path xmlns="http://www.w3.org/2000/svg" d="M85.508 32.884c0-1.117 0.558-2.233 1.675-2.233 1.117 0 2.233 0.558 2.234 2.233 0.558 0 1.675 0 2.233-0.558 2.233 0 4.467-0.558 6.141 0 1.675 0.558 2.792 0.558 4.467 1.117 1.675 0.558 2.792 0 3.908-0.559 2.233-0.558 3.908-1.675 6.141-2.233 1.117-0.558 1.675-0.558 2.792-0.558 1.117-0.558 2.233-0.558 3.908-1.117 2.792-0.558 5.583-1.117 7.817-2.233 2.233-1.117 4.467-1.117 6.699-1.675 1.117 0 1.675-0.558 2.792-1.117 0.558 0 0.558-0.558 1.116-1.116 1.117-0.558 1.675-1.117 2.792-0.559 0.558 0.558 1.675 0.558 2.233 0h0.559c3.35 0 6.7-0.558 10.608 0 0.558 0 1.117 0 1.116 0 1.675-1.117 3.908-1.117 6.142-1.116 0.558 0 1.675 0 2.233 0h0.558c2.233 0 4.467 0 6.142 0.558 1.675 0 2.792 0.558 4.466 1.117 1.675 0 2.792 0 4.467 0.558 1.117 0 2.233 0 3.35 0 0.558 0 1.117 0 1.116 0 2.233 0.558 4.467 0.558 6.7 0.558 1.675 0.558 3.35 1.117 5.583 1.117 0.558 0 1.117 0 1.675 0 0.558 0 1.117 0.558 1.675 0.558l0.558 0.559c2.233 0 3.908 1.117 6.142 1.116 0.558 0 1.675 0 2.233 0.559 1.675 1.117 3.908 1.675 6.141 1.675 1.117 0 1.675 0.558 2.234 1.116 1.675 0.558 2.792 1.117 4.466 1.675 1.117 0.558 2.233 0 3.35 0.558 1.675 0.558 3.908 1.117 5.583 2.792 1.117 1.117 2.233 1.117 3.908 2.233 0.558 0 1.117 0.558 1.675 1.117 1.675 1.117 3.35 2.233 5.025 2.791 0.558 0 1.117 0.558 1.675 0.559 1.675 1.117 3.35 2.792 5.583 3.908 1.117 0.558 1.675 1.117 2.792 1.675h0.558c1.675 1.675 3.908 2.792 5.583 4.466 1.675 1.675 2.792 2.792 5.025 3.909 0 0 0 0 0 0.558 0.558 1.117 1.117 1.675 2.233 2.233 1.117 0.558 1.675 1.117 2.234 1.675 1.675 1.117 3.35 2.233 4.466 3.35 0.558 0.558 1.117 1.117 2.233 2.233 0.558 0.558 1.117 1.117 1.675 1.117 2.233 0.558 3.35 2.233 5.025 3.908 1.117 1.117 2.792 2.792 3.908 3.908 0.558 0.558 1.117 1.675 1.675 2.792 1.117 3.35 2.792 6.7 4.467 9.491 0 0 0 0.558 0.558 1.117v0.558c1.117 1.117 1.675 2.792 2.792 3.908 0.558 0.558 0.558 1.117 1.116 1.675 1.117 1.675 1.675 3.908 2.792 5.583 1.675 2.792 2.792 5.583 3.908 8.375v0.558c0.558 1.117 1.117 2.233 1.675 3.908 0 1.117 1.117 2.233 1.675 3.909 0.558 2.792 2.233 5.583 2.791 8.933 0 0.558 0.558 1.117 0.559 2.233 0.558 1.675 1.117 3.35 1.675 5.025 0 0.558 0.558 1.117 1.116 1.675 1.117 1.117 1.117 2.233 1.117 3.35-0.558 2.233 0 4.467 0.558 6.699 0 0.558 0 1.117 0 2.234 0.558 2.233 1.117 5.025 1.117 7.258 0 0.558 0 1.675 0 2.233 0 1.675 0.558 3.35 1.675 5.025 0 0.558 0.558 0.558 0.558 0.558 0.558 0.558 1.117 1.675 1.675 2.233 0.558 0.558 0.558 0.558 1.117 1.117 1.117 1.117 1.675 2.233 1.675 3.908 0 0.558-0.558 1.675-0.559 2.233 0 0.558 0 1.675 0.559 2.234 0.558 0.558 0.558 1.117 0.558 1.675 0 0.558-0.558 1.117-1.117 1.116v0c-0.558 1.675-2.792 2.233-3.35 3.908-0.558 2.233-1.117 4.467-1.674 6.7-0.558 1.675-0.558 2.792-0.559 4.467 0 1.675-0.558 2.792-0.558 4.466-0.558 2.233-1.117 4.467-1.675 6.7 0 1.117-0.558 2.233-0.558 3.35 0.558 0.558 1.117 1.117 1.675 1.116 1.117 1.117 2.233 2.233 3.349 3.35 0.558 0.558 0.558 1.117 0 1.117-0.558 0.558-1.117 0.558-1.674 0.558-0.558-0.558-1.675-1.117-2.234-1.116-0.558-0.558-1.675-1.117-2.791-0.559 0 1.117-0.558 2.233-0.559 2.792-0.558 1.117-1.117 2.792-1.116 3.908-0.558 2.233-1.675 3.908-2.233 6.142-1.117 2.792-2.233 5.025-3.35 7.258-0.558 1.117-1.117 2.233-1.675 3.35v0c0 1.675-1.675 3.35-2.234 5.024-1.117 2.233-2.233 4.467-3.349 7.258-0.558 1.117-1.117 2.233-1.675 2.792-1.117 2.792-2.233 5.025-3.909 7.258-1.117 1.675-2.233 2.792-3.349 3.35-1.117 1.117-2.233 2.233-3.35 3.35-0.558 0.558-1.117 1.117-1.675 1.675-0.558 0.558-0.558 0.558-1.117 1.116-1.117 1.675-2.792 2.792-3.908 4.467-1.117 1.117-1.675 2.233-3.35 3.35-1.117 1.117-2.233 2.792-3.908 3.35-0.558 0.558-1.117 1.675-1.675 2.233-0.558 0.558-1.117 1.675-1.675 2.233 0 1.117 0.558 2.233 0.558 2.792 0 1.675-1.675 2.233-2.791 1.116-1.675-1.117-1.675-1.117-3.35 0-1.675 1.117-3.35 2.792-5.583 3.35-0.558 0-0.558 0.558-1.117 0.559-1.117 0.558-1.675 1.675-2.792 2.233-1.117 1.117-2.792 1.675-3.908 2.791-0.558 0.558-1.117 0.558-1.675 1.117-1.675 1.117-3.35 1.675-5.024 3.35-0.558 0.558-1.117 0.558-1.675 1.117 0 0.558 0 0.558 0 1.116 0 1.117-1.117 2.233-2.792 1.675-1.675-0.558-2.792 0-4.466 0-1.675 0.558-3.35 1.675-5.025 2.233-0.558 0-1.117 0.558-1.675 1.117-1.675 1.117-3.35 1.675-5.025 2.233-1.117 0-2.233 1.117-3.35 1.117-0.558 0-1.117 0.558-1.675 0.558h-0.558c-2.233 1.675-4.467 2.792-6.7 4.467-0.558 0-0.558 0.558-1.117 1.116-0.558 1.117-1.117 1.675-2.233 1.675-2.792 0-3.908 2.233-3.35 4.467 0 0.558 0.558 1.117 0.559 1.675 0.558 1.117 0 2.233-0.559 2.791-0.558 0.558-2.233 0.558-2.791-0.558-1.117-1.117-1.675-2.233-2.234-3.908-0.558-1.117-1.675-2.233-2.791-2.792-1.117-0.558-2.233-0.558-3.35 0-0.558 0-0.558 0.558-1.117 0.558-1.117 1.117-2.792 1.675-4.466 1.117-0.558 0-1.675 0-1.675 0.558-0.558 0.558-0.558 1.675 0 2.234 1.117 1.117 0.558 2.233 0.558 3.908 0 2.233-1.675 3.35-3.908 2.233-0.558-0.558-1.117-0.558-1.675-1.117-0.558 0-0.558-0.558-0.558-1.116-0.558-0.558-0.558-1.675-1.117-2.792-1.117 0.558-2.233 0.558-3.35 1.117-0.558 0-1.117 0.558-1.675 0.558-1.675 0-2.233 0-2.791-1.675-0.558-1.675-1.675-1.675-2.792-2.233-2.233-0.558-5.025-0.558-7.258-1.675h-0.558c-2.233-1.675-4.467-1.675-7.258-1.675-1.675 0-3.35 0.558-5.025 0.558-1.675 0-2.792 0.558-3.908 1.675-0.558 0.558-1.117 1.117-1.675 1.117-0.558-0.558-0.558-1.117-1.117-1.675v-0.558c0-0.558-0.558-1.117-1.116-0.559-1.117 0.558-2.233-0.558-3.35-1.116-0.558-0.558-1.675-1.675-1.675-2.792-0.558-0.558-1.117-1.117-1.675-1.116-1.117 0-2.792-0.558-3.908-0.559-0.558 0-1.117 0-1.117-0.558-0.558-0.558-1.117-0.558-2.233-0.558-0.558 0-0.558-0.558-1.117-0.559 1.117 1.117 1.675 2.233 2.233 3.35 0 0.558 0.558 0.558 0.559 1.117 0.558 1.117 0 1.675-1.675 1.675-1.117 0-1.117 0-1.675 0.558 0 1.117 0 1.675 0 2.792 0 0.558 0 1.117-1.117 1.675 0 0-0.558 0-0.558 0.558-0.558 0.558-0.558 1.117 0 1.675 1.675 1.117 2.792 1.675 4.466 2.233 1.675 0 1.675 1.117 2.234 2.233 0.558 1.117 0 1.675-0.559 2.792-1.117 1.117-2.233 2.233-3.35 3.35-1.675 0.558-2.792 2.233-4.466 2.233-1.117 0-2.233-0.558-2.792-1.675-0.558-2.792-0.558-5.025 0.559-7.816 0-0.558 0.558-1.117 0-1.675-5.025 0-5.025-1.117-5.025-1.675 0-1.117 0.558-1.675 0.558-2.792 0.558-1.117 0-1.675-1.675-2.233-0.558 0-1.117 0-1.675 0-0.558 0-0.558-0.558-1.675-0.558 1.117-0.558 1.675-0.558 2.792-1.117-0.558-2.233-1.117-3.908-2.792-5.025-0.558-0.558-1.117-1.117-1.116-2.233 0-1.675-1.117-2.792-1.675-3.908-1.117-1.675-3.35-2.233-5.025-2.233-1.675-0.558-2.792-0.558-4.467-1.117-1.675-0.558-3.35-2.233-5.024-2.792-0.558-0.558-1.117-1.117-2.234-1.674-2.233-1.117-3.908-2.792-5.583-4.467-1.117-0.558-1.675-1.675-2.791-2.233-1.117-1.117-1.675-2.233-2.792-2.792-1.117-1.117-2.233-2.233-3.908-3.35-1.675-1.117-2.792-2.792-4.467-4.466-1.117-1.675-2.792-2.792-4.466-3.908-0.558 0-1.117 0-1.675 0-0.558 0-1.117 0.558-1.675 0.558-1.675 0.558-2.792 1.675-4.467 2.233 0.558-0.558 0.558-0.558 0-1.675-0.558-0.558-1.117-1.117-1.674-1.116-1.117 0-2.233 0-3.35 0-2.233 0-4.467 0.558-6.7 0.558-1.675 0-3.908 0.558-5.583 1.117 0.558 1.117 0.558 1.675 1.116 2.791-1.117 0.558-2.233 0.558-3.35 0.558-0.558 0-1.675 0.558-2.233 1.117-0.558 0-0.558 0.558-1.116 0-1.117-0.558-2.233 0-3.35 0.558h-0.559c0 0 0-0.558 0.559-0.558 0.558-0.558 1.117-1.117 1.675-1.675 0.558-0.558 1.117-0.558 2.233-1.117-0.558-0.558-0.558-1.117-0.558-1.116-0.558-0.558-1.117-0.558-1.675 0-0.558 0.558-1.117 1.117-1.675 1.675-0.558 0.558-1.117 0.558-1.675 0-0.558-0.558-0.558-1.117 0-1.675 0-0.558 0.558-1.117 1.116-1.675 0.558-0.558 0.558-1.117 1.117-1.675-1.117-1.117-1.675-2.233-2.792-2.792-1.675-1.117-3.35-2.792-4.466-4.466-1.117-2.233-2.792-3.908-5.025-5.025-0.558-0.558-1.117-1.117-1.675-1.675-0.558-0.558-0.558-0.558-1.116-1.117-1.675 0.558-2.792 1.675-4.467 2.234-0.558 0-0.558 0.558-1.117 1.116-0.558 1.117-1.675 1.117-2.791 1.117-0.558 0-1.117-0.558-0.558-1.117 0.558-1.117 1.117-2.233 2.791-1.675 0 0 0.558 0 0.558-0.558 1.117-1.117 2.233-2.792 3.909-3.908-0.558-1.675-1.675-2.792-2.234-3.908-0.558-0.558-0.558-1.117-0.558-2.234 0-0.558 0-0.558-0.558-1.116 0 0-0.558 0-1.117 0.558-0.558 0.558-1.675 1.117-2.791 0 0-0.558 0-1.117 0.558-1.675l0.558-0.558c1.675-0.558 1.675-2.233 1.675-3.908v-0.559c-0.558-1.117-0.558-1.675 0.558-2.791 1.675-1.117 3.35-3.35 3.909-5.025 0.558-1.117 1.675-1.675 2.791-2.792 1.117-1.117 2.233-2.233 2.792-3.908h0.558c2.233 0.558 2.792-1.117 3.908-2.791 0-0.558 0-1.117 0.559-1.117 1.117-1.117 1.117-2.233 0.558-3.908 0-0.558-0.558-1.675-0.558-2.233 0-0.558 0-0.558-0.559-1.117-1.675-1.117-1.675-2.233 0-3.35 1.117-0.558 1.117-1.675 1.675-2.233 0.558-1.117 0.558-2.233 0.559-3.908-0.558-1.675-0.558-3.908-1.117-5.583-0.558-2.233-1.117-5.025-1.675-7.259 0-0.558 0-0.558 0-1.116 0-1.675 0-2.792-0.558-4.467-0.558-0.558-0.558-1.675-0.559-2.233-0.558-1.675-1.117-2.792-2.791-3.35-1.675-1.117-3.908-1.675-5.583-2.791-0.558-0.558-1.117 0-1.675 0.558-0.558 1.117-1.675 2.233-2.234 3.35-0.558 0.558-1.117 1.675-1.675 2.791-1.117 1.117-3.35 2.233-5.024 0.559-0.558-1.117-1.117-1.675 0-2.792 1.117-1.675 2.233-3.35 3.908-4.466 0.558-0.558 1.117-1.675 1.675-2.234 0.558-1.117 0.558-2.233 0.558-3.35-0.558-2.233-1.117-4.467-1.117-7.258 0-2.792 0-5.025 0.559-7.816 0.558-1.117 0.558-2.792 1.116-3.908 0-0.558 0.558-1.675 1.117-2.233 1.117-1.117 2.233-2.233 2.792-3.909 0.558-1.675 1.675-3.35 1.675-5.024 0-0.558 0.558-1.117 0.558-1.675 0-0.558 0.558-1.675 0.558-2.234-0.558-1.675 0-2.792 0.558-3.908 0.558-1.117 1.117-2.792 1.675-3.908 1.117-2.233 1.117-5.025 3.35-7.258 0.558-1.117 1.117-2.233 1.675-3.35 0.558-2.233 1.675-3.908 2.792-5.583 0.558-0.558 0.558-0.558 0.558-1.117 0.558-1.675 1.675-3.35 2.792-5.025 1.117-1.675 1.117-3.35 1.675-5.024 0-0.558 0-1.117 0.558-1.675 1.675-1.675 1.117-3.908 0.558-6.142-1.117-2.792-1.675-5.583-1.116-8.374 0-0.558 0-1.117 0.558-1.117 0.558-1.117 0.558-1.675 1.117-2.792v-0.558c1.117-1.117 2.233-2.792 3.908-3.35 2.233-1.117 4.467-1.675 7.258-2.233 2.233 0 4.467-1.117 6.141-3.35 0-0.558 0.558-0.558 1.117-1.117l0.558-0.558c0.558-1.117 1.117-1.675 1.675-2.233 1.117-1.117 2.233-2.792 3.35-3.908 1.117-1.117 2.233-2.792 3.908-4.467l0.559-0.558c1.117-1.117 2.233-2.233 3.349-2.792 1.117-1.117 2.233-2.233 3.35-3.35 1.117-1.117 1.675-2.233 2.792-3.35 1.117-0.558 2.233-1.675 3.35-2.791 1.117-1.117 2.233-2.233 2.791-2.792 1.117-1.117 2.792-2.233 3.909-2.791 1.117-0.558 2.233-1.117 2.791-2.792 0.558-1.675 1.117-2.792 1.675-4.466 0-1.117 0.558-2.233 1.117-3.35 0.558 0 1.117 0 2.233-0.558-0.558-0.558-1.117-0.558-1.117-1.117 0-0.558 0.558-1.117 0.559-1.117 0-0.558 0.558-1.117 0.558-1.675 0 0 0.558 0 0.558-0.558 0 0 0.558 0 0.559-0.558-1.117 0.558-1.675 0-2.234-0.559 0.558 0.558 1.117 0.558 2.234 1.117 0 0 0.558 0 0.558-0.558 0-0.558 0-1.117 0-1.117 0 0-0.558 0-1.117 0-0.558 0-1.117 0.558-1.675 0.558zM182.097 295.292c0-0.558-0.558-0.558-0.559-1.117-0.558-1.117 0-1.675 0.559-2.233 0.558-0.558 1.117-0.558 2.233-0.558 1.117 0.558 1.675 1.117 1.675 2.233 0 0.558 0 1.675 0 2.233 0.558 2.233 0.558 2.233 2.791 2.233 1.117 0 2.233 0 3.35 0 2.233-0.558 4.467-1.675 6.7-2.233 2.233-0.558 4.467-1.117 6.7-1.675 0.558 0 1.117 0 2.233 0 2.233 0.558 3.908 0 5.583-1.117 0.558-0.558 1.675-0.558 2.233-1.116 1.117-0.558 2.233-0.558 3.35-1.117 2.792-1.675 5.583-2.792 7.817-4.466 1.675-1.117 3.35-2.233 5.024-3.35 1.675-1.117 3.35-2.233 5.025-3.35 1.117-0.558 2.792-1.675 3.908-2.792 2.233-1.675 3.908-3.35 6.142-4.466 1.117-0.558 1.675-1.117 2.233-1.675 1.117-0.558 1.675-1.675 2.792-2.233 0.558-0.558 1.117-1.117 2.233-1.675 0.558-0.558 0.558-0.558 0.558-1.117 1.675-1.117 3.35-3.35 4.467-5.025 1.117-1.117 2.233-2.233 3.35-3.908 1.675-1.675 2.792-3.908 4.466-6.141 1.117-1.117 2.233-2.792 2.792-3.909 1.117-2.233 2.233-4.467 3.908-6.141v-0.558c1.117-2.233 2.233-4.467 3.35-6.7 1.675-2.792 2.792-6.141 4.466-8.933 0.558-1.117 1.117-2.233 1.117-3.35 1.117-2.233 1.675-4.467 2.233-6.7 0-0.558 0-0.558 0.559-1.116 1.675-3.35 2.792-6.7 3.349-10.608 0.558-2.233 1.117-4.467 1.675-6.7 1.117-3.35 1.117-6.141 1.675-9.491 0.558-2.233 0.558-5.025 0.559-7.258 0.558-3.35 0.558-7.258 0-10.608 0-2.792-0.558-6.141-0.559-8.933 0-2.792-0.558-5.025-1.116-7.817-0.558-2.792-1.117-5.025-1.675-7.816-1.117-2.233-1.675-4.467-2.234-7.258-0.558-2.233-1.675-3.908-1.674-6.142 0-1.675-0.558-3.35-2.234-3.908-1.675-0.558-2.792-1.117-4.466-2.233-3.35-2.233-5.025-5.025-4.467-8.375 0-1.675 0.558-3.908 1.117-5.583 0.558-1.675 1.117-3.35 0-4.467-0.558-1.675-1.675-2.792-2.233-3.908-1.117-1.675-1.675-2.792-2.792-3.908-1.117-2.233-2.233-4.467-3.908-6.141-2.233-2.792-3.908-5.583-6.7-7.817l-0.558-0.558c-1.675-2.233-3.35-4.467-5.583-6.142-1.117-1.117-2.233-2.233-3.35-2.791-0.558-0.558-1.117-1.117-2.233-1.675-1.675-1.117-3.35-1.675-4.467-2.792-1.675-1.675-3.908-2.792-5.583-3.908 0 0-0.558 0-0.558-0.558-2.233-1.117-3.908-1.675-6.142-2.792-2.233-1.117-4.467-1.675-6.7-1.675-0.558 0-0.558 0-1.116 0-0.558-0.558-1.675-0.558-2.233-0.558-0.558 0-0.558 0-1.117 0-1.117-0.558-2.792 0-3.908 0-2.233 0.558-4.467 0.558-6.7-0.558-2.792-1.117-5.025-2.233-7.258-3.35-1.675-1.117-2.792-2.233-4.467-3.35-3.35-2.792-6.7-6.141-10.608-8.933 0.558-2.792-0.558-3.35-2.791-3.35-1.117 0-2.233 0.558-3.35 1.117-0.558 0.558-0.558 0.558-1.117 1.116-1.675 1.117-2.792 2.792-4.466 3.909-2.792 1.675-3.908 1.117-6.142 0-0.558-0.558-1.117-1.117-1.675-1.675-1.117-1.117-2.233-2.792-2.791-3.909-1.117-2.233-3.35-2.233-5.583-2.233-1.117 0-2.792 0.558-3.908 0.558-2.233 0-4.467 1.117-5.584 2.792-1.117 1.675-2.233 3.35-3.908 5.025-0.558 0.558-1.675 1.117-2.233 2.233-1.117 1.117-2.233 1.117-3.35 0-0.558-0.558-1.117-0.558-1.675-1.117-0.558 0.558-1.117 1.117-1.117 1.675-0.558 1.117-1.117 2.233-1.674 3.909-0.558 1.675-1.675 3.35-2.792 4.466-0.558 0.558-0.558 0.558-1.117 1.117-0.558 1.117-2.233 1.675-3.35 1.675-1.117 1.117-2.233 2.792-2.791 3.908-0.558 1.117-1.117 2.233-1.675 3.908-0.558 0.558-0.558 1.675-1.117 2.233-0.558 1.117-0.558 1.675-0.558 2.792 0.558 1.675-0.558 2.233-2.233 2.791-1.117 0-1.117 0-1.675 1.117 0 1.675 0.558 2.792 1.116 4.467 0.558 0.558 1.117 1.675 1.117 2.233 0 1.117 0.558 1.675 1.675 2.233 0.558 0.558 1.117 1.117 1.675 1.117 0.558 0 0.558 0.558 1.117 0.558 0.558 0.558 1.117 0 1.116-0.558 0.558-1.675 1.117-3.35 1.117-5.025 0.558-2.233 0.558-3.908 1.116-6.142 0.558-1.117 1.117-1.675 1.675-2.233 0 0 0.558 0 1.117 0v0.559c-0.558 2.792-1.675 6.141-2.233 8.933-0.558 1.117-0.558 2.233-1.117 3.349 0 0.558-0.558 1.117-1.116 1.117-1.117 0.558-2.233 1.117-3.35 1.117-0.558 0-1.117 0-1.675 0-1.117-0.558-2.233-1.675-3.35-2.234-0.558-0.558-1.117-1.117-1.675-1.674-0.558-1.117-1.117-2.233-1.675-3.35-0.558-1.117-1.117-1.675-2.233-2.234-0.558-0.558-1.117-0.558-1.675-1.116-1.117-1.117-2.233-1.675-3.908-1.675-0.558 0-1.675 0-2.234 0-0.558 0-1.675 0.558-2.233 1.116-1.117 0.558-1.675 0.558-2.791 0-2.792-1.117-5.583-0.558-8.375 0.559-1.117 0.558-2.233 1.117-3.35 1.116-2.792 0-5.025 0-7.816 0-2.792 0-5.025-0.558-7.817-1.116-1.117 0-2.233 0-3.35 0-2.233 0.558-2.792 2.233-2.233 4.466 0.558 2.233 1.117 5.025 1.117 7.258 0 1.675 0 3.35 0 5.025 0 1.117 0 1.675 0 2.792 0 1.675-0.558 3.35-0.559 5.025-0.558 3.35-2.233 6.141-4.466 8.374-1.675 1.675-3.908 3.35-6.142 3.908-1.117 0.558-2.233 1.117-3.908 1.675-2.792 1.117-5.025 3.35-6.7 6.142-0.558 1.117-1.117 2.233-1.674 3.35-1.117 1.675-1.675 2.792-2.792 4.466-0.558 1.117-1.675 2.233-2.233 3.35-0.558 1.117-1.675 1.675-1.675 2.792-1.117 2.233-1.675 4.467-2.792 6.699-0.558 1.117-0.558 2.792-1.116 3.909-1.117 2.233-1.117 4.467-1.117 7.258 0 0.558 0 1.117 0 2.233 0 2.792-0.558 6.141-0.558 8.933 0 2.792 0 5.583 0.558 8.375 0 1.117 0 2.792 0 3.908 0 2.233 0.558 5.025 0.558 7.258 0 2.233 0 5.025 1.117 7.258v0.558c0.558 2.233 0.558 4.467 1.116 6.7 0 0.558 0 1.117 0.559 1.675 1.117 3.35 1.675 6.141 2.791 9.491 0.558 2.233 1.675 4.467 2.234 6.7 0.558 2.233 2.792 4.467 3.349 7.258v0c1.675 3.35 3.35 6.7 5.584 10.05 0.558 1.117 1.675 2.233 2.233 3.35 1.117 1.675 1.675 3.35 2.791 4.466 0.558 1.117 1.675 2.233 2.234 2.792 0.558 1.117 1.117 2.233 2.233 3.35 1.117 1.117 2.233 2.792 3.35 3.908 1.675 2.792 3.908 5.025 6.141 6.7 1.117 1.117 2.233 1.675 3.35 2.791 0.558 0.558 1.117 0.558 1.117 1.117 0.558 0.558 1.117 1.117 2.233 1.675 4.467 2.233 7.816 5.583 11.725 8.933 1.675 1.675 3.35 3.35 5.583 4.466 2.233 1.675 3.908 3.35 6.7 3.908 0 0 0.558 0 0.558 0.559 1.117 1.117 2.792 1.675 3.908 2.233 2.233 1.117 5.025 2.233 7.258 3.35 0.558 0.558 1.675 0.558 2.233 1.117 1.675 0.558 3.35 1.117 5.025 1.674 1.675 0.558 2.792 1.117 4.467 1.117h0.558c1.117 0.558 1.675 0.558 2.792 0 0.558 0 1.117 0 1.116 0.558 0 0.558 0.558 0.558 1.117 0.559 0.558 0 1.117 0 2.233 0 0.558-0.558 0.558-1.117 1.117-2.234 0.558 0.558 1.117 0.558 1.116 0.559 0.558 1.117 1.675 1.117 2.792 1.116h0.558c1.117 0 1.675 0 2.233-0.558 0-0.558 1.117-0.558 1.675-0.558 1.675 0.558 3.35 0.558 5.025 1.116 1.117 0.558 2.792 0.558 3.35-0.558 0.558-0.558 1.117-1.117 2.233-0.558 1.117 0.558 1.675 0.558 2.792 0 0.558 0 1.117 0 1.117 0 1.675 0.558 2.792 0.558 4.466 1.116 2.233 0.558 2.233 0.558 3.908-1.116 0.558-0.558 1.675-0.558 2.233 0 0.558 1.117 0.558 1.675 0.559 2.791 0.558 0 0.558 0 1.116-0.558 0-1.117 0.558-1.117 1.675-1.675 0.558 0.558 0.558 0.558 1.117 0.558 1.117 1.117 1.675 1.117 2.233-0.558 0-0.558 0-1.117 0.559-1.116 0.558 0 1.117 0.558 1.116 0.558 0.558 1.117 1.675 1.675 2.233 2.791 1.117 1.117 2.792 1.117 3.35 0 0.558-0.558 1.117-0.558 1.675-0.558 0-0.558 0-1.117 0-1.675 1.675 1.117 1.117 1.117 0.559 1.117zM89.417 34.559c1.675 0.558 2.792 0.558 3.349-0.558-1.117 0.558-2.233-0.558-3.349 0.558z" fill="#000000" fill-rule="nonzero" stroke="none" stroke-width="1" stroke-linecap="butt" stroke-linejoin="miter" stroke-miterlimit="10" stroke-dasharray="" stroke-dashoffset="0" font-family="none" font-weight="none" font-size="none" text-anchor="none" style="mix-blend-mode: normal" data-fill-palette-color="tertiary"></path></g><g transform="matrix(1,0,0,1,64,139.4477453446672)"><svg viewBox="0 0 192 81.10450931066559" height="81.10450931066559" width="192"><g><svg viewBox="0 0 192 81.10450931066559" height="81.10450931066559" width="192"><g><svg viewBox="0 0 192 81.10450931066559" height="81.10450931066559" width="192"><g transform="matrix(1,0,0,1,0,50.125840505533276)"><svg viewBox="0 0 192 30.978668805132312" height="30.978668805132312" width="192"><g id="textblocktransform"><svg viewBox="0 0 192 30.978668805132312" height="30.978668805132312" width="192" id="textblock"><g><svg viewBox="0 0 192 30.978668805132312" height="30.978668805132312" width="192"><g transform="matrix(1,0,0,1,0,0)"><svg width="192" viewBox="0 -34.400001525878906 249.3699951171875 40.2400016784668" height="30.978668805132312" data-palette-color="#ffffff"><path d="M31.6-0.92L31.6-0.92Q31.6 4.52 34.08 4.52L34.08 4.52Q35.68 4.52 36.76 2.16L36.76 2.16Q37 1.76 37.48 1.92L37.48 1.92Q37.68 2 37.58 2.26 37.48 2.52 37.28 2.9 37.08 3.28 36.56 4.08L36.56 4.08Q35.36 5.84 33.8 5.84L33.8 5.84Q28.96 5.84 28.96-1.84L28.96-1.84Q28.96-10.48 35.08-28.84L35.08-28.84Q35.24-29.32 34.9-29.32 34.56-29.32 34.16-28.96L34.16-28.96Q32.04-26.96 29.82-23.6 27.6-20.24 25.92-16.8L25.92-16.8Q22.96-10.84 21.56-6.88L21.56-6.88Q19.68-1.32 18.24-1.32L18.24-1.32Q17.4-1.32 17.4-2.16L17.4-2.16Q17.4-2.2 17.44-2.24L17.44-2.24Q22.44-20.36 22.44-25L22.44-25Q22.44-27.08 21.52-27.08L21.52-27.08Q19.68-27.08 15.72-20.22 11.76-13.36 9.76-6.48L9.76-6.48Q7.36 1.8 5.52 1.8L5.52 1.8Q4.68 1.8 4.68 0.92L4.68 0.92Q4.72 0.8 4.92 0.24 5.12-0.32 5.44-1.42 5.76-2.52 6.46-4.9 7.16-7.28 7.64-9.52L7.64-9.52Q9.24-16.96 9.24-20.24L9.24-20.24Q9.24-22 9-23.74 8.76-25.48 7.8-26.56 6.84-27.64 5.28-27.64L5.28-27.64Q2.84-27.64 1.84-25.6L1.84-25.6Q1.52-24.88 1.52-24.38 1.52-23.88 1.8-23.88L1.8-23.88Q1.68-23.32 0.84-23.32 0-23.32 0-24.4L0-24.4Q0-26.04 1.66-27.32 3.32-28.6 5.44-28.6 7.56-28.6 8.82-27.54 10.08-26.48 10.64-24.72L10.64-24.72Q11.56-21.8 11.56-18.4L11.56-18.4Q11.56-17.12 11.4-15.76L11.4-15.76 11.8-15.76Q18.16-28.64 22.48-28.64L22.48-28.64Q24.96-28.64 24.96-24.4L24.96-24.4Q24.96-22.36 24.04-17.24L24.04-17.24 24.4-17.24Q31.72-31.04 36.4-31.04L36.4-31.04Q38.2-31.04 38.2-29.04L38.2-29.04Q36.96-25.96 35.44-20.64L35.44-20.64Q31.6-7.48 31.6-0.92ZM42.08 0L42.08 0Q38.8 0 38.8-5.16L38.8-5.16Q38.8-8.24 40.32-11.92L40.32-11.92Q42.44-17.08 45.88-18.96L45.88-18.96Q47.36-19.76 48.64-19.76 49.92-19.76 50.66-19.2 51.4-18.64 51.6-18.08L51.6-18.08 51.84-17.56Q51.72-16.88 51.16-16.88L51.16-16.88Q50.52-16.88 50.42-17.18 50.32-17.48 50.2-17.7 50.08-17.92 49.64-18.3 49.2-18.68 48.64-18.68L48.64-18.68Q46.04-18.68 43.92-14L43.92-14Q41.52-8.6 41.52-3.84L41.52-3.84Q41.52-1.44 42.48-1.44L42.48-1.44Q43.24-1.44 44.62-3.14 46-4.84 47.52-7.4L47.52-7.4Q50.16-11.8 51.8-15.04L51.8-15.04Q53.16-17.92 54.6-17.92L54.6-17.92Q55.36-17.92 55.36-17L55.36-17Q55-16.24 54.44-14.84 53.88-13.44 52.96-9.28 52.04-5.12 52.04-1 52.04 3.12 53.28 3.12L53.28 3.12Q53.76 3.12 54.16 2.7 54.56 2.28 54.88 1.44L54.88 1.44Q55 1 55.44 1L55.44 1Q55.6 1 55.68 1.12 55.76 1.24 55.68 1.52 55.6 1.8 55.4 2.3 55.2 2.8 54.54 3.64 53.88 4.48 53.16 4.48L53.16 4.48Q51.48 4.48 50.58 2.28 49.68 0.08 49.68-2.92 49.68-5.92 50.12-8.68L50.12-8.68 49.72-8.68Q44.64 0 42.08 0ZM70.56-11.48L70.56-11.48Q69.04-11.48 69.04-14.8L69.04-14.8Q69.04-16.68 69.76-18.32L69.76-18.32Q67.04-15.96 63.68-9.54 60.32-3.12 60.32-1.16L60.32-1.16Q60.32-0.68 59.68-0.68L59.68-0.68Q58.52-0.68 58.52-3.84L58.52-3.84Q58.52-9.8 59.72-14.64 60.92-19.48 62.64-19.48L62.64-19.48Q63.4-19.48 63.4-18.6L63.4-18.6Q61.56-12.76 60.76-6.64L60.76-6.64 61.04-6.64Q64.28-14.12 68.2-18.32L68.2-18.32Q70.44-20.72 72.28-20.72L72.28-20.72Q72.68-20.72 72.94-20.48 73.2-20.24 73.2-19.88L73.2-19.88Q72.92-19.6 72.52-19.04 72.12-18.48 71.44-16.38 70.76-14.28 70.76-11.8L70.76-11.8Q70.76-11.48 70.56-11.48ZM85.87-11.48L85.87-11.48Q84.35-11.48 84.35-14.8L84.35-14.8Q84.35-16.68 85.07-18.32L85.07-18.32Q82.35-15.96 78.99-9.54 75.63-3.12 75.63-1.16L75.63-1.16Q75.63-0.68 74.99-0.68L74.99-0.68Q73.83-0.68 73.83-3.84L73.83-3.84Q73.83-9.8 75.03-14.64 76.23-19.48 77.95-19.48L77.95-19.48Q78.71-19.48 78.71-18.6L78.71-18.6Q76.87-12.76 76.07-6.64L76.07-6.64 76.35-6.64Q79.59-14.12 83.51-18.32L83.51-18.32Q85.75-20.72 87.59-20.72L87.59-20.72Q87.99-20.72 88.25-20.48 88.51-20.24 88.51-19.88L88.51-19.88Q88.23-19.6 87.83-19.04 87.43-18.48 86.75-16.38 86.07-14.28 86.07-11.8L86.07-11.8Q86.07-11.48 85.87-11.48ZM93.35 0.36L93.35 0.36Q88.43 0.36 88.43-6.4L88.43-6.4Q88.43-10.2 90.35-14L90.35-14Q92.79-18.8 96.15-18.8L96.15-18.8Q96.63-18.8 96.95-18.56 97.27-18.32 97.39-17.84L97.39-17.84Q94.87-17.84 93.03-13.8 91.19-9.76 91.19-5.84L91.19-5.84Q91.19-1.08 93.79-1.08L93.79-1.08Q95.27-1.08 96.87-3.34 98.47-5.6 99.53-9.28 100.59-12.96 100.59-16.68L100.59-16.68 100.59-17.16Q99.35-17.96 98.55-19.16 97.75-20.36 97.75-20.92 97.75-21.48 98.25-21.98 98.75-22.48 99.27-22.48L99.27-22.48Q100.03-22.48 100.75-21.12 101.47-19.76 101.75-18.04L101.75-18.04Q102.99-17.2 103.93-17.2 104.87-17.2 105.43-17.52L105.43-17.52Q105.43-16.96 105.03-16.52 104.63-16.08 103.79-16.08 102.95-16.08 101.87-16.48L101.87-16.48Q101.83-12.64 100.71-8.76 99.59-4.88 97.59-2.26 95.59 0.36 93.35 0.36ZM107.83-1.36L107.83-1.36Q107.83 1.44 109.63 1.44L109.63 1.44Q111.31 1.44 112.77-1.32 114.23-4.08 114.23-8.28L114.23-8.28Q114.23-10.32 113.49-14.04 112.75-17.76 112.75-18.9 112.75-20.04 112.83-20.4L112.83-20.4Q112.31-19.56 109.83-14.82 107.35-10.08 105.43-7.32L105.43-7.32Q105.27-7.16 104.99-7.22 104.71-7.28 104.53-7.46 104.35-7.64 104.35-7.72 104.35-7.8 104.39-7.84L104.39-7.84Q106.27-10.56 108.77-15.34 111.27-20.12 112.95-22.48 114.63-24.84 116.27-24.84L116.27-24.84Q117.11-24.84 117.11-24.12L117.11-24.12Q117.11-23.64 116.43-22.84L116.43-22.84Q114.27-20.4 114.27-17.84L114.27-17.84Q114.27-16.32 115.43-11.98 116.59-7.64 116.59-5.68L116.59-5.68Q116.59-2.16 114.63 0.3 112.67 2.76 110.19 2.76L110.19 2.76Q106.67 2.76 106.67-1.28L106.67-1.28Q106.67-4.32 108.53-7.64 110.39-10.96 112.27-12.12L112.27-12.12Q112.63-12.36 112.73-11.84 112.83-11.32 112.59-11.16L112.59-11.16Q110.47-9.96 108.91-6.04L108.91-6.04Q107.83-3.28 107.83-1.36ZM123.5 0L123.5 0Q120.22 0 120.22-5.16L120.22-5.16Q120.22-8.24 121.74-11.92L121.74-11.92Q123.86-17.08 127.3-18.96L127.3-18.96Q128.78-19.76 130.06-19.76 131.34-19.76 132.09-19.2 132.82-18.64 133.03-18.08L133.03-18.08 133.26-17.56Q133.14-16.88 132.59-16.88L132.59-16.88Q131.94-16.88 131.84-17.18 131.75-17.48 131.63-17.7 131.5-17.92 131.06-18.3 130.63-18.68 130.06-18.68L130.06-18.68Q127.47-18.68 125.34-14L125.34-14Q122.94-8.6 122.94-3.84L122.94-3.84Q122.94-1.44 123.91-1.44L123.91-1.44Q124.66-1.44 126.05-3.14 127.42-4.84 128.94-7.4L128.94-7.4Q131.59-11.8 133.22-15.04L133.22-15.04Q134.59-17.92 136.03-17.92L136.03-17.92Q136.78-17.92 136.78-17L136.78-17Q136.43-16.24 135.87-14.84 135.31-13.44 134.38-9.28 133.47-5.12 133.47-1 133.47 3.12 134.7 3.12L134.7 3.12Q135.19 3.12 135.59 2.7 135.98 2.28 136.31 1.44L136.31 1.44Q136.43 1 136.87 1L136.87 1Q137.03 1 137.1 1.12 137.19 1.24 137.1 1.52 137.03 1.8 136.82 2.3 136.63 2.8 135.97 3.64 135.31 4.48 134.59 4.48L134.59 4.48Q132.91 4.48 132 2.28 131.1 0.08 131.1-2.92 131.1-5.92 131.54-8.68L131.54-8.68 131.14-8.68Q126.06 0 123.5 0ZM156.62-20.44L156.62-20.44Q156.62-17.6 158.3-17.32L158.3-17.32Q158.18-16.76 157.38-16.76L157.38-16.76Q155.74-16.76 155.06-18.72L155.06-18.72Q154.74-19.64 154.74-20.96 154.74-22.28 155.78-24.16L155.78-24.16Q158.18-28.52 164.58-29.8L164.58-29.8Q166.86-30.24 169.58-30.24 172.3-30.24 174.52-30.88 176.74-31.52 177.8-32.32 178.86-33.12 179.8-33.76 180.74-34.4 181.36-34.4 181.98-34.4 181.98-33.84L181.98-33.84Q181.98-32.52 179.38-31.16 176.78-29.8 172.62-29.4L172.62-29.4Q170.9-28.48 169.94-22.88L169.94-22.88Q168.86-16.44 168.14-12.36 167.42-8.28 166.44-5.38 165.46-2.48 164.22-0.26 162.98 1.96 160.96 3.3 158.94 4.64 156.24 4.64 153.54 4.64 151.86 2.88L151.86 2.88Q150.02 0.96 150.02-2.32L150.02-2.32Q150.02-7.8 152.94-10.72L152.94-10.72Q154.7-12.48 156.86-12.48L156.86-12.48Q157.38-12.48 157.72-12.24 158.06-12 158.18-11.52L158.18-11.52Q154.78-11.52 152.66-8L152.66-8Q151.1-5.4 151.1-2.6L151.1-2.6Q151.1 2 154.26 3L154.26 3Q154.98 3.24 155.82 3.24L155.82 3.24Q158.3 3.24 160.16 1.2 162.02-0.84 163-3.96 163.98-7.08 164.88-10.98 165.78-14.88 166.38-18.4 166.98-21.92 168-24.98 169.02-28.04 170.34-29.28L170.34-29.28 169.54-29.28Q161.34-29.28 158.1-24.68L158.1-24.68Q156.62-22.6 156.62-20.44ZM186.3-11.48L186.3-11.48Q184.78-11.48 184.78-14.8L184.78-14.8Q184.78-16.68 185.5-18.32L185.5-18.32Q182.78-15.96 179.42-9.54 176.06-3.12 176.06-1.16L176.06-1.16Q176.06-0.68 175.42-0.68L175.42-0.68Q174.26-0.68 174.26-3.84L174.26-3.84Q174.26-9.8 175.46-14.64 176.66-19.48 178.38-19.48L178.38-19.48Q179.14-19.48 179.14-18.6L179.14-18.6Q177.3-12.76 176.5-6.64L176.5-6.64 176.78-6.64Q180.02-14.12 183.94-18.32L183.94-18.32Q186.18-20.72 188.02-20.72L188.02-20.72Q188.42-20.72 188.68-20.48 188.94-20.24 188.94-19.88L188.94-19.88Q188.66-19.6 188.26-19.04 187.86-18.48 187.18-16.38 186.5-14.28 186.5-11.8L186.5-11.8Q186.5-11.48 186.3-11.48ZM192.25 0L192.25 0Q188.97 0 188.97-5.16L188.97-5.16Q188.97-8.24 190.49-11.92L190.49-11.92Q192.61-17.08 196.05-18.96L196.05-18.96Q197.53-19.76 198.81-19.76 200.09-19.76 200.83-19.2 201.57-18.64 201.77-18.08L201.77-18.08 202.01-17.56Q201.89-16.88 201.33-16.88L201.33-16.88Q200.69-16.88 200.59-17.18 200.49-17.48 200.37-17.7 200.25-17.92 199.81-18.3 199.37-18.68 198.81-18.68L198.81-18.68Q196.21-18.68 194.09-14L194.09-14Q191.69-8.6 191.69-3.84L191.69-3.84Q191.69-1.44 192.65-1.44L192.65-1.44Q193.41-1.44 194.79-3.14 196.17-4.84 197.69-7.4L197.69-7.4Q200.33-11.8 201.97-15.04L201.97-15.04Q203.33-17.92 204.77-17.92L204.77-17.92Q205.53-17.92 205.53-17L205.53-17Q205.17-16.24 204.61-14.84 204.05-13.44 203.13-9.28 202.21-5.12 202.21-1 202.21 3.12 203.45 3.12L203.45 3.12Q203.93 3.12 204.33 2.7 204.73 2.28 205.05 1.44L205.05 1.44Q205.17 1 205.61 1L205.61 1Q205.77 1 205.85 1.12 205.93 1.24 205.85 1.52 205.77 1.8 205.57 2.3 205.37 2.8 204.71 3.64 204.05 4.48 203.33 4.48L203.33 4.48Q201.65 4.48 200.75 2.28 199.85 0.08 199.85-2.92 199.85-5.92 200.29-8.68L200.29-8.68 199.89-8.68Q194.81 0 192.25 0ZM220.65-18.12L220.65-18.12Q221.81-17.24 222.87-17.24 223.93-17.24 224.37-17.52L224.37-17.52Q224.37-17 223.91-16.54 223.45-16.08 222.59-16.08 221.73-16.08 220.73-16.48L220.73-16.48Q220.61-12.72 219.29-8.78 217.97-4.84 215.89-2.18 213.81 0.48 211.75 0.48 209.69 0.48 208.81-1.22 207.93-2.92 207.93-5.12L207.93-5.12Q207.93-7.76 208.67-10.78 209.41-13.8 210.41-15.64 211.41-17.48 212.21-17.48 213.01-17.48 213.01-16.64L213.01-16.64Q210.49-7.92 210.49-4.4 210.49-0.88 212.05-0.88L212.05-0.88Q213.41-0.88 215.15-3.24 216.89-5.6 218.17-9.46 219.45-13.32 219.45-17L219.45-17 219.45-17.24Q218.29-18.08 217.57-19.24 216.85-20.4 216.85-20.98 216.85-21.56 217.37-22.04 217.89-22.52 218.49-22.52L218.49-22.52Q219.21-22.52 219.83-21.18 220.45-19.84 220.65-18.12ZM234.01-19.4L234.01-19.4Q237.05-19.4 237.05-15.84L237.05-15.84Q237.05-13.8 235.69-11.56L235.69-11.56Q233.37-7.84 229.53-7.84L229.53-7.84Q228.93-7.84 228.53-8.04 228.13-8.24 227.93-8.64L227.93-8.64Q230.77-8.64 233.13-11.92L233.13-11.92Q235.05-14.56 235.05-16.76L235.05-16.76Q235.05-18.4 233.73-18.4L233.73-18.4Q231.09-18.4 228.81-14.28L228.81-14.28Q226.37-9.8 226.37-5.08L226.37-5.08Q226.37-1.08 228.65-0.28L228.65-0.28Q229.09-0.12 229.77-0.12 230.45-0.12 231.21-0.46 231.97-0.8 232.49-1.28L232.49-1.28Q233.53-2.24 234.21-3.4L234.21-3.4Q234.37-3.72 234.81-3.72L234.81-3.72Q235.53-3.72 235.49-3.48L235.49-3.48Q235.37-3.04 234.59-2 233.81-0.96 233.15-0.34 232.49 0.28 231.43 0.78 230.37 1.28 229.29 1.28L229.29 1.28Q225.05 1.28 223.89-2.72L223.89-2.72Q223.53-4.08 223.53-5.52L223.53-5.52Q223.53-8.2 224.77-11.36L224.77-11.36Q226.73-16.16 230.17-18.28L230.17-18.28Q232.05-19.4 234.01-19.4ZM245.01 5.84L245.01 5.84Q242.69 5.84 241.59 3.4 240.49 0.96 240.49-3.92 240.49-8.8 241.93-15.48 243.37-22.16 245.31-26.56 247.25-30.96 248.69-30.96L248.69-30.96Q249.37-30.96 249.37-30.16L249.37-30.16Q248.53-28.24 247.25-24.38 245.97-20.52 245.11-17.24 244.25-13.96 243.55-9.56 242.85-5.16 242.85-2.02 242.85 1.12 243.47 2.82 244.09 4.52 245.17 4.52L245.17 4.52Q246.09 4.52 246.93 3.66 247.77 2.8 248.13 1.96L248.13 1.96Q248.33 1.52 248.85 1.72L248.85 1.72Q249.05 1.8 248.95 2.06 248.85 2.32 248.63 2.72 248.41 3.12 247.85 3.96L247.85 3.96Q246.65 5.84 245.01 5.84Z" opacity="1" transform="matrix(1,0,0,1,0,0)" fill="#000000" class="wordmark-text-0" data-fill-palette-color="primary" id="text-0"></path></svg></g></svg></g></svg></g></svg></g><g transform="matrix(1,0,0,1,74.09526491376381,0)"><svg viewBox="0 0 43.80947017247237 42.81252028869286" height="42.81252028869286" width="43.80947017247237"><g><svg xmlns="http://www.w3.org/2000/svg" xmlns:xlink="http://www.w3.org/1999/xlink" version="1.0" x="0" y="0" viewBox="1.1159999370574951 1.6570005416870117 47.76700210571289 46.67999267578125" enable-background="new 0 0 50 50" xml:space="preserve" height="42.81252028869286" width="43.80947017247237" class="icon-icon-0" data-fill-palette-color="accent" id="icon-0"><g fill="#ffffff" data-fill-palette-color="accent"><g fill="#ffffff" data-fill-palette-color="accent"><path fill="none" d="M26 26v9.172c3-0.275 5.82-1.163 8.643-2.305C35.404 30.368 35.847 28 35.847 26H26z"></path><path fill="none" d="M38.019 26c0 2-0.314 3.585-0.95 5.84 3.634-1.682 6.874-3.646 9.056-5.072C46.136 26.513 46.163 26 46.163 26H38.019z"></path><path fill="none" d="M37.888 24h8.275c0-2-0.457-4.783-1.43-7.247-0.973-2.467-2.268-4.435-3.893-5.992-1.133 0.813-2.92 1.767-5.285 2.908C37.11 17.462 37.888 21 37.888 24z"></path><path fill="none" d="M28.093 4.127C27.929 4.03 27.511 4 26.858 4H26v10.111c3-0.226 5.703-0.738 6.965-1.556C31.605 9.247 30.005 6.466 28.093 4.127z"></path><path fill="none" d="M39.479 9.312c-2.693-2.238-5.611-3.796-8.691-4.702 1.584 2.038 2.982 4.506 4.15 7.394C37.47 10.674 38.958 9.765 39.479 9.312z"></path><path fill="none" d="M38.02 42.071c-1.94 1.366-3.972 2.321-6.016 2.954C34.329 44.423 36.327 43.43 38.02 42.071z"></path><path fill="none" d="M24 26h-9.663c0 1 0.061 1.563 0.231 2.583L24 29.986V26z"></path><path fill="none" d="M4.082 26c0 0 0.032 0.692 0.058 1.041l8.389 1.232C12.418 27.45 12.358 27 12.358 26H4.082z"></path><path fill="none" d="M18.266 33.789C19.962 34.791 22 35.225 24 35.258v-5.084L18.266 33.789z"></path><path fill="none" d="M35.13 18.699c-0.484-2.11-1.03-3.562-1.483-4.307C30.598 15.627 28 16.253 26 16.253V24h9.847C35.847 22 35.585 20.774 35.13 18.699z"></path><path fill="none" d="M19.14 4.738c-3.537 0.904-6.328 2.432-8.436 4.573 0.616 0.549 2.143 1.395 4.605 2.561C16.315 9.312 17.582 6.94 19.14 4.738z"></path><path fill="none" d="M13.203 18.34c0.517-2.139 1.037-3.683 1.555-4.656-0.745-0.359-1.459-0.68-2.207-1.005-0.71-0.323-1.36-0.646-1.945-0.971-0.581-0.324-1.002-0.634-1.331-0.958C6.228 13.928 4.443 18 3.927 24h8.432C12.391 22 12.681 20.479 13.203 18.34z"></path><path fill="none" d="M26 46.226l2.166-0.128c0.064-0.081 0.108-0.182 0.177-0.271C27.563 45.939 27 46.016 26 46.059V46.226z"></path><path fill="none" d="M21.891 46.098L24 46.226V46.1c-1-0.012-1.481-0.053-2.204-0.115C21.822 46.021 21.865 46.062 21.891 46.098z"></path><path fill="none" d="M14.337 24H24v-7.747c-2 0-4.378-0.637-7.558-1.87C15.018 17.787 14.337 21 14.337 24z"></path><path fill="none" d="M20.985 13.693C22.25 13.982 23 14.111 24 14.111V4h-0.675c-0.293 0-0.521-0.006-0.749 0.03-0.194 0.029-0.421 0.062-0.65 0.094-1.945 2.66-3.55 5.51-4.782 8.561C18.439 13.079 19.721 13.433 20.985 13.693z"></path><path fill="#000000" d="M38.02 42.071c-1.692 1.358-3.69 2.352-6.016 2.954-1.194 0.369-2.392 0.628-3.576 0.801-0.067 0.09-2.407 0.232-2.407 0.232-1 0.039-1 0.052-2.001 0.041 0 0-2.157-0.078-2.184-0.115-6.396-0.561-11.267-2.897-11.267-2.897l-0.027 0.075c4.421 3.444 9.295 5.175 14.599 5.175 4.019 0 7.815-0.942 11.353-2.824 3.533-1.915 6.39-4.639 8.599-8.271 1.763-2.923 2.788-6.239 3.099-9.95C45.677 34.603 42.048 39.234 38.02 42.071z" data-fill-palette-color="accent"></path><path fill="#000000" d="M4.082 26h8.276c0 1 0.06 1.454 0.17 2.277l2.075 0.303c-0.171-1.02-0.267-1.58-0.267-2.58H24v3.986l0.242 0.035L24 30.174v5.084c1 0.011 1-0.018 2-0.086V26h9.847c0 2-0.387 4.368-1.146 6.867 0.803-0.324 1.594-0.672 2.368-1.031 0.636-2.254 0.95-3.836 0.95-5.836h8.145c0 0-0.027 0.517-0.039 0.771 0.938-0.612 1.674-1.118 2.164-1.466 0.002-0.22 0.016-0.432 0.014-0.653-0.063-4.603-1.168-8.628-3.34-12.1-2.143-3.47-4.994-6.165-8.531-8.039-3.539-1.915-7.27-2.856-11.127-2.856-2.66 0-5.323 0.484-8.015 1.426-2.691 0.971-5.223 2.432-7.559 4.381-2.366 1.98-4.25 4.31-5.648 7.07-1.426 2.724-2.202 5.904-2.334 9.505-0.016 0.911 0.007 1.799 0.066 2.666l2.325 0.336C4.114 26.692 4.082 26 4.082 26zM44.733 16.753c0.973 2.464 1.43 5.247 1.43 7.247h-8.275c0-3-0.777-6.533-2.332-10.326 2.365-1.142 4.152-2.111 5.285-2.924C42.466 12.308 43.761 14.286 44.733 16.753zM39.479 9.312c-0.521 0.453-2.01 1.362-4.541 2.691-1.168-2.888-2.566-5.355-4.15-7.394C33.868 5.516 36.786 7.073 39.479 9.312zM26 4h0.858c0.652 0 1.07 0.03 1.234 0.127 1.912 2.339 3.513 5.12 4.872 8.429C31.703 13.373 29 13.886 26 14.111V4zM26 16.253c2 0 4.598-0.616 7.646-1.851 0.453 0.745 0.971 2.187 1.455 4.297C35.557 20.774 35.847 22 35.847 24H26V16.253zM24 24h-9.663c0-3 0.681-6.213 2.105-9.617 3.18 1.233 5.558 1.87 7.558 1.87V24zM22.576 4.03C22.805 3.994 23.032 4 23.325 4H24v10.111c-1 0-1.75-0.129-3.015-0.418-1.264-0.261-2.545-0.616-3.841-1.01 1.232-3.051 2.828-5.899 4.773-8.56C22.146 4.092 22.382 4.06 22.576 4.03zM19.14 4.738c-1.558 2.202-2.824 4.573-3.83 7.134-2.463-1.166-3.989-2.012-4.605-2.561C12.812 7.17 15.603 5.643 19.14 4.738zM9.274 10.75c0.329 0.324 0.75 0.627 1.331 0.951 0.585 0.325 1.235 0.654 1.945 0.978 0.748 0.325 1.462 0.652 2.207 1.013-0.518 0.973-1.038 2.509-1.555 4.648C12.681 20.478 12.391 22 12.358 24H3.927C4.443 18 6.228 13.929 9.274 10.75z" data-fill-palette-color="accent"></path></g><path fill="#000000" d="M32.507 3.195c0 1.966-3.324 3.561-7.426 3.561s-7.427-1.595-7.427-3.561c3.459-0.916 3.53-0.813 7.632-0.813C29.386 2.382 27.216 3.094 32.507 3.195z" data-fill-palette-color="accent"></path><g fill="#ffffff" data-fill-palette-color="accent"><path fill="#000000" d="M14.631 33.999l7.066-3.067L1.116 27.43l7.217 19.785 1.326-6.839c0 0 22.797 14.882 38.9-13.301l0.324-2.162C43.483 30.109 28.394 42.477 14.631 33.999z" data-fill-palette-color="accent"></path></g></g></svg></g></svg></g><g></g></svg></g></svg></g></svg></g></svg></g><defs></defs></svg><rect width="320" height="360" fill="none" stroke="none" visibility="hidden"></rect></g></svg></g></svg>